<svg xmlns="http://www.w3.org/2000/svg" xmlns:xlink="http://www.w3.org/1999/xlink" width="500" zoomAndPan="magnify" viewBox="0 0 375 374.999991" height="500" preserveAspectRatio="xMidYMid meet" version="1.0"><defs><g/><clipPath id="3382cd69f3"><path d="M 311 197 L 327 197 L 327 197.824219 L 311 197.824219 Z M 311 197 " clip-rule="nonzero"/></clipPath><clipPath id="95cd9f90f3"><path d="M 304.121094 192 L 314 192 L 314 196 L 304.121094 196 Z M 304.121094 192 " clip-rule="nonzero"/></clipPath><clipPath id="370ceaf86e"><path d="M 304.121094 181 L 309 181 L 309 192 L 304.121094 192 Z M 304.121094 181 " clip-rule="nonzero"/></clipPath><clipPath id="02728566a1"><path d="M 328 183 L 337.871094 183 L 337.871094 187 L 328 187 Z M 328 183 " clip-rule="nonzero"/></clipPath><clipPath id="2f87f1ee32"><path d="M 332 172 L 337.871094 172 L 337.871094 183 L 332 183 Z M 332 172 " clip-rule="nonzero"/></clipPath><clipPath id="9e62b8b255"><path d="M 320 168.574219 L 334 168.574219 L 334 173 L 320 173 Z M 320 168.574219 " clip-rule="nonzero"/></clipPath></defs><rect x="-37.5" width="450" fill="#ffffff" y="-37.499999" height="449.999989" fill-opacity="1"/><rect x="-37.5" width="450" fill="#ffffff" y="-37.499999" height="449.999989" fill-opacity="1"/><g clip-path="url(#3382cd69f3)"><path fill="#c1121f" d="M 326.464844 197.261719 C 310.972656 197.261719 311.882812 197.183594 311.882812 197.429688 C 311.882812 197.714844 311.820312 198.023438 312.050781 198.023438 L 326.464844 198.023438 C 326.695312 198.023438 326.632812 197.714844 326.632812 197.429688 C 326.632812 197.335938 326.558594 197.261719 326.464844 197.261719 " fill-opacity="1" fill-rule="nonzero"/></g><path fill="#c1121f" d="M 315.917969 195.398438 C 315.097656 195.722656 314.359375 196.230469 313.726562 196.941406 L 324.789062 196.941406 C 324.171875 196.242188 323.433594 195.726562 322.597656 195.398438 C 321.476562 194.957031 320.734375 193.878906 320.734375 192.671875 L 320.734375 190.796875 C 320.734375 190.644531 320.613281 190.523438 320.460938 190.523438 L 318.054688 190.523438 C 317.90625 190.523438 317.78125 190.644531 317.78125 190.796875 L 317.78125 192.671875 C 317.78125 193.878906 317.042969 194.957031 315.917969 195.398438 " fill-opacity="1" fill-rule="nonzero"/><path fill="#c1121f" d="M 318.875 174.613281 L 318.875 181.617188 C 316.871094 189.003906 318.496094 190.203125 318.496094 190.203125 L 320.023438 190.203125 C 320.023438 190.203125 321.648438 189.003906 319.640625 181.617188 L 319.640625 174.613281 L 318.875 174.613281 " fill-opacity="1" fill-rule="nonzero"/><path fill="#d90429" d="M 318.523438 174.292969 L 319.996094 174.292969 C 320.394531 174.292969 320.703125 173.9375 320.644531 173.539062 L 320.289062 171.132812 C 320.121094 170.007812 318.398438 169.988281 318.226562 171.132812 L 317.871094 173.539062 C 317.8125 173.9375 318.121094 174.292969 318.523438 174.292969 " fill-opacity="1" fill-rule="nonzero"/><g clip-path="url(#95cd9f90f3)"><path fill="#d90429" d="M 304.175781 192.214844 C 305.863281 196.421875 311.914062 196.378906 313.511719 192.089844 L 304.128906 192.089844 C 304.144531 192.132812 304.160156 192.171875 304.175781 192.214844 " fill-opacity="1" fill-rule="nonzero"/></g><path fill="#d90429" d="M 309.011719 181.070312 L 313.265625 191.769531 L 313.503906 191.769531 L 309.25 181.070312 C 309.222656 181.070312 309.042969 181.074219 309.011719 181.070312 " fill-opacity="1" fill-rule="nonzero"/><path fill="#d90429" d="M 308.707031 181.050781 L 308.707031 191.769531 L 308.929688 191.769531 L 308.929688 181.066406 C 308.816406 181.0625 308.796875 181.0625 308.707031 181.050781 " fill-opacity="1" fill-rule="nonzero"/><g clip-path="url(#370ceaf86e)"><path fill="#d90429" d="M 308.640625 181.042969 C 308.480469 181.023438 308.527344 181.03125 308.414062 181.007812 L 304.175781 191.664062 L 304.132812 191.769531 L 304.375 191.769531 L 308.640625 181.042969 " fill-opacity="1" fill-rule="nonzero"/></g><g clip-path="url(#02728566a1)"><path fill="#c1121f" d="M 328.105469 183.214844 C 329.722656 187.550781 335.878906 187.546875 337.492188 183.214844 L 328.105469 183.214844 " fill-opacity="1" fill-rule="nonzero"/></g><path fill="#c1121f" d="M 332.367188 172.191406 L 328.113281 182.894531 L 328.355469 182.894531 L 332.609375 172.195312 C 332.578125 172.199219 332.394531 172.195312 332.367188 172.191406 " fill-opacity="1" fill-rule="nonzero"/><path fill="#c1121f" d="M 332.6875 172.191406 L 332.6875 182.894531 L 332.910156 182.894531 L 332.910156 172.175781 C 332.820312 172.1875 332.785156 172.1875 332.6875 172.191406 " fill-opacity="1" fill-rule="nonzero"/><g clip-path="url(#2f87f1ee32)"><path fill="#c1121f" d="M 332.980469 172.167969 L 337.246094 182.894531 L 337.484375 182.894531 L 333.207031 172.132812 C 333.09375 172.15625 333.140625 172.148438 332.980469 172.167969 " fill-opacity="1" fill-rule="nonzero"/></g><path fill="#c1121f" d="M 308.152344 180.730469 C 310.640625 180.359375 313.058594 176.648438 317.667969 174.109375 C 317.464844 173.742188 317.546875 173.582031 317.769531 172.066406 C 317.742188 172.082031 317.714844 172.097656 317.6875 172.113281 C 314.070312 174.257812 310.253906 179.414062 308.65625 180.140625 C 308.296875 180.296875 308.085938 180.335938 308.085938 180.335938 C 307.023438 180.527344 306.628906 179.59375 307.039062 178.894531 C 307.515625 179.34375 308.277344 178.839844 308.046875 178.226562 C 307.726562 177.363281 306.410156 178.03125 306.960938 178.800781 C 306.351562 179.589844 306.761719 180.835938 308.152344 180.730469 " fill-opacity="1" fill-rule="nonzero"/><g clip-path="url(#9e62b8b255)"><path fill="#c1121f" d="M 333.585938 170.707031 C 333.769531 170.035156 333.335938 169.382812 332.632812 169.242188 C 332.59375 168.828125 332.175781 168.574219 331.800781 168.714844 C 331.03125 169.003906 331.464844 170.167969 332.234375 169.878906 C 332.460938 169.792969 332.609375 169.585938 332.632812 169.359375 C 333.40625 169.621094 333.710938 170.585938 332.789062 171.136719 C 332.792969 171.132812 332.65625 171.207031 332.453125 171.285156 C 330.941406 171.949219 324.984375 170.5 320.609375 171.128906 L 320.863281 172.835938 C 326.417969 171.40625 332.851562 173.25 333.585938 170.707031 " fill-opacity="1" fill-rule="nonzero"/></g><g fill="#000000" fill-opacity="1"><g transform="translate(44.404066, 194.624987)"><g><path d="M 5.1875 4.078125 C 5.300781 4.191406 5.359375 4.28125 5.359375 4.34375 C 5.359375 4.414062 5.296875 4.453125 5.171875 4.453125 C 4.742188 4.453125 4.394531 3.8125 4.125 2.53125 C 3.96875 1.863281 3.878906 1.164062 3.859375 0.4375 L 3.859375 -0.015625 C 2.460938 -0.160156 1.332031 -0.613281 0.46875 -1.375 C -0.363281 -2.101562 -0.789062 -3.007812 -0.8125 -4.09375 C -0.851562 -5.40625 -0.453125 -6.664062 0.390625 -7.875 C 1.640625 -9.675781 3.515625 -10.875 6.015625 -11.46875 C 6.828125 -11.65625 7.679688 -11.75 8.578125 -11.75 L 8.671875 -11.75 C 8.390625 -12.132812 8.1875 -12.578125 8.0625 -13.078125 C 6.425781 -13.429688 5.09375 -13.984375 4.0625 -14.734375 C 3.039062 -15.492188 2.304688 -16.378906 1.859375 -17.390625 C 1.796875 -17.503906 1.765625 -17.628906 1.765625 -17.765625 C 1.765625 -17.898438 1.8125 -17.96875 1.90625 -17.96875 C 2.007812 -17.96875 2.113281 -17.84375 2.21875 -17.59375 C 3.164062 -15.46875 5.085938 -14.101562 7.984375 -13.5 C 7.972656 -13.550781 7.96875 -13.609375 7.96875 -13.671875 C 7.96875 -13.734375 7.96875 -13.796875 7.96875 -13.859375 C 7.945312 -15.410156 8.4375 -16.828125 9.4375 -18.109375 C 10.832031 -19.890625 12.773438 -21.0625 15.265625 -21.625 C 16.015625 -21.800781 16.753906 -21.890625 17.484375 -21.890625 C 19.171875 -21.890625 20.484375 -21.585938 21.421875 -20.984375 C 22.359375 -20.390625 22.828125 -19.554688 22.828125 -18.484375 C 22.828125 -17.679688 22.535156 -16.925781 21.953125 -16.21875 C 21.367188 -15.519531 20.582031 -14.910156 19.59375 -14.390625 C 17.4375 -13.265625 14.882812 -12.703125 11.9375 -12.703125 C 11.019531 -12.703125 10.164062 -12.753906 9.375 -12.859375 C 9.476562 -12.453125 9.648438 -12.0625 9.890625 -11.6875 C 10.910156 -11.570312 11.679688 -11.363281 12.203125 -11.0625 C 12.734375 -10.769531 13.003906 -10.460938 13.015625 -10.140625 C 13.015625 -9.804688 12.757812 -9.640625 12.25 -9.640625 C 11.132812 -9.640625 10.09375 -10.15625 9.125 -11.1875 C 7.101562 -10.96875 5.203125 -10.050781 3.421875 -8.4375 C 2.328125 -7.425781 1.5625 -6.363281 1.125 -5.25 C 0.90625 -4.675781 0.800781 -4.046875 0.8125 -3.359375 C 0.832031 -2.671875 1.097656 -2.046875 1.609375 -1.484375 C 2.128906 -0.929688 2.890625 -0.578125 3.890625 -0.421875 C 4.054688 -2.335938 4.816406 -4.050781 6.171875 -5.5625 C 7.554688 -7.113281 9.085938 -7.890625 10.765625 -7.890625 C 11.421875 -7.890625 11.988281 -7.675781 12.46875 -7.25 C 12.957031 -6.820312 13.203125 -6.257812 13.203125 -5.5625 C 13.203125 -4.863281 12.988281 -4.160156 12.5625 -3.453125 C 12.132812 -2.753906 11.546875 -2.144531 10.796875 -1.625 C 9.179688 -0.519531 7.210938 0.03125 4.890625 0.03125 L 4.328125 0.015625 C 4.316406 0.0976562 4.3125 0.175781 4.3125 0.25 L 4.3125 0.484375 C 4.3125 1.546875 4.488281 2.523438 4.84375 3.421875 C 4.96875 3.753906 5.082031 3.972656 5.1875 4.078125 Z M 9.3125 -13.28125 C 9.894531 -13.195312 10.625 -13.15625 11.5 -13.15625 C 12.382812 -13.15625 13.238281 -13.210938 14.0625 -13.328125 C 14.882812 -13.453125 15.6875 -13.628906 16.46875 -13.859375 C 17.257812 -14.085938 18.003906 -14.367188 18.703125 -14.703125 C 19.398438 -15.035156 20.007812 -15.414062 20.53125 -15.84375 C 21.675781 -16.78125 22.25 -17.816406 22.25 -18.953125 C 22.25 -19.691406 21.875 -20.296875 21.125 -20.765625 C 20.34375 -21.253906 19.453125 -21.5 18.453125 -21.5 C 17.460938 -21.5 16.613281 -21.375 15.90625 -21.125 C 15.195312 -20.875 14.515625 -20.539062 13.859375 -20.125 C 13.210938 -19.707031 12.613281 -19.226562 12.0625 -18.6875 C 11.507812 -18.144531 11.03125 -17.578125 10.625 -16.984375 C 9.75 -15.734375 9.3125 -14.570312 9.3125 -13.5 Z M 10.234375 -11.21875 C 10.953125 -10.40625 11.6875 -10 12.4375 -10 C 12.601562 -10 12.6875 -10.050781 12.6875 -10.15625 C 12.6875 -10.257812 12.617188 -10.363281 12.484375 -10.46875 C 12.359375 -10.582031 12.1875 -10.691406 11.96875 -10.796875 C 11.457031 -11.035156 10.878906 -11.175781 10.234375 -11.21875 Z M 4.34375 -0.375 C 4.550781 -0.351562 4.847656 -0.34375 5.234375 -0.34375 C 5.617188 -0.34375 6.101562 -0.4375 6.6875 -0.625 C 7.269531 -0.8125 7.835938 -1.054688 8.390625 -1.359375 C 8.953125 -1.671875 9.476562 -2.023438 9.96875 -2.421875 C 10.46875 -2.828125 10.90625 -3.25 11.28125 -3.6875 C 12.082031 -4.625 12.484375 -5.445312 12.484375 -6.15625 C 12.484375 -6.59375 12.320312 -6.925781 12 -7.15625 C 11.675781 -7.382812 11.234375 -7.5 10.671875 -7.5 C 10.109375 -7.5 9.46875 -7.328125 8.75 -6.984375 C 8.039062 -6.648438 7.375 -6.171875 6.75 -5.546875 C 5.34375 -4.117188 4.539062 -2.394531 4.34375 -0.375 Z M 4.34375 -0.375 "/></g></g></g><g fill="#000000" fill-opacity="1"><g transform="translate(62.009141, 194.624987)"><g><path d="M 4.8125 -2.875 C 4.9375 -2.851562 5.09375 -2.84375 5.28125 -2.84375 C 5.476562 -2.84375 5.710938 -2.914062 5.984375 -3.0625 C 6.253906 -3.207031 6.53125 -3.394531 6.8125 -3.625 C 7.101562 -3.851562 7.390625 -4.101562 7.671875 -4.375 C 7.953125 -4.65625 8.207031 -4.921875 8.4375 -5.171875 C 8.675781 -5.429688 8.882812 -5.664062 9.0625 -5.875 L 9.421875 -6.34375 L 9.765625 -6.078125 C 9.640625 -5.953125 9.476562 -5.78125 9.28125 -5.5625 L 8.625 -4.8125 C 7.175781 -3.25 6.03125 -2.46875 5.1875 -2.46875 L 4.921875 -2.46875 C 4.835938 -2.46875 4.753906 -2.476562 4.671875 -2.5 C 3.796875 -0.59375 1.9375 0.359375 -0.90625 0.359375 C -2.144531 0.359375 -3.046875 0.0625 -3.609375 -0.53125 C -3.847656 -0.789062 -3.96875 -1.125 -3.96875 -1.53125 C -3.96875 -1.9375 -3.867188 -2.28125 -3.671875 -2.5625 C -3.484375 -2.851562 -3.257812 -3.09375 -3 -3.28125 C -2.46875 -3.664062 -1.988281 -3.859375 -1.5625 -3.859375 C -1.144531 -3.859375 -0.9375 -3.660156 -0.9375 -3.265625 C -0.96875 -2.992188 -1.195312 -2.789062 -1.625 -2.65625 C -1.757812 -2.613281 -1.890625 -2.59375 -2.015625 -2.59375 C -2.148438 -2.59375 -2.273438 -2.632812 -2.390625 -2.71875 C -2.515625 -2.8125 -2.613281 -2.878906 -2.6875 -2.921875 C -2.75 -2.859375 -2.828125 -2.785156 -2.921875 -2.703125 C -3.023438 -2.617188 -3.125 -2.519531 -3.21875 -2.40625 C -3.445312 -2.125 -3.5625 -1.832031 -3.5625 -1.53125 C -3.5625 -1.238281 -3.460938 -1.003906 -3.265625 -0.828125 C -3.066406 -0.648438 -2.832031 -0.515625 -2.5625 -0.421875 C -2.15625 -0.273438 -1.726562 -0.203125 -1.28125 -0.203125 C -0.84375 -0.203125 -0.390625 -0.296875 0.078125 -0.484375 C 0.554688 -0.671875 1.023438 -0.984375 1.484375 -1.421875 C 2.742188 -2.617188 3.425781 -4.394531 3.53125 -6.75 C 3.59375 -8.332031 3.785156 -9.570312 4.109375 -10.46875 C 4.117188 -10.5 4.125 -10.546875 4.125 -10.609375 L 0.4375 -6.078125 C 0.226562 -5.828125 0.078125 -5.664062 -0.015625 -5.59375 C -0.117188 -5.519531 -0.171875 -5.484375 -0.171875 -5.484375 C -0.296875 -5.472656 -0.378906 -5.503906 -0.421875 -5.578125 C -0.441406 -5.628906 -0.394531 -5.726562 -0.28125 -5.875 C 2.40625 -9.082031 3.914062 -10.90625 4.25 -11.34375 C 4.414062 -12.15625 4.6875 -12.5625 5.0625 -12.5625 C 5.238281 -12.5625 5.382812 -12.515625 5.5 -12.421875 C 5.625 -12.328125 5.6875 -12.207031 5.6875 -12.0625 C 5.675781 -11.863281 5.515625 -11.582031 5.203125 -11.21875 C 4.898438 -10.863281 4.710938 -10.632812 4.640625 -10.53125 C 4.578125 -10.4375 4.535156 -10.351562 4.515625 -10.28125 C 4.492188 -10.21875 4.484375 -10.15625 4.484375 -10.09375 L 4.484375 -9.90625 C 4.472656 -9.625 4.5 -9.289062 4.5625 -8.90625 L 4.953125 -6.3125 C 5.179688 -4.894531 5.132812 -3.75 4.8125 -2.875 Z M 4.8125 -2.875 "/></g></g></g><g fill="#000000" fill-opacity="1"><g transform="translate(71.319366, 194.624987)"><g><path d="M -4.328125 12.296875 C -5.023438 12.296875 -5.375 11.921875 -5.375 11.171875 C -5.375 9.347656 -3.675781 6.382812 -0.28125 2.28125 C 0.832031 0.945312 2.117188 -0.46875 3.578125 -1.96875 C 2.679688 -1.257812 1.859375 -0.75 1.109375 -0.4375 C 0.367188 -0.125 -0.210938 0.03125 -0.640625 0.03125 C -1.910156 0.03125 -2.546875 -0.640625 -2.546875 -1.984375 C -2.546875 -3.523438 -1.910156 -5.019531 -0.640625 -6.46875 C 1.222656 -8.625 3.113281 -9.894531 5.03125 -10.28125 C 5.601562 -10.40625 6.171875 -10.46875 6.734375 -10.46875 C 8.015625 -10.46875 8.65625 -9.953125 8.65625 -8.921875 C 8.65625 -8.546875 8.597656 -8.1875 8.484375 -7.84375 C 8.898438 -8.351562 9.238281 -8.785156 9.5 -9.140625 L 10.28125 -10.15625 C 10.445312 -10.082031 10.675781 -10.046875 10.96875 -10.046875 C 11.613281 -10.046875 12.070312 -10.054688 12.34375 -10.078125 C 9.582031 -6.648438 7.910156 -4.597656 7.328125 -3.921875 L 5.46875 -1.796875 C 5.539062 -1.609375 5.585938 -1.367188 5.609375 -1.078125 C 5.660156 -0.867188 5.796875 -0.695312 6.015625 -0.5625 C 6.242188 -0.4375 6.53125 -0.375 6.875 -0.375 C 7.226562 -0.375 7.644531 -0.503906 8.125 -0.765625 C 8.601562 -1.035156 9.085938 -1.375 9.578125 -1.78125 C 10.078125 -2.195312 10.5625 -2.648438 11.03125 -3.140625 C 11.5 -3.628906 11.925781 -4.09375 12.3125 -4.53125 L 13.78125 -6.34375 L 14.125 -6.078125 L 13.59375 -5.390625 C 11.644531 -2.878906 9.882812 -1.207031 8.3125 -0.375 C 7.789062 -0.101562 7.269531 0.03125 6.75 0.03125 C 6.226562 0.03125 5.804688 -0.140625 5.484375 -0.484375 C 4.753906 2.816406 3.34375 5.789062 1.25 8.4375 C -0.0195312 10.050781 -1.289062 11.175781 -2.5625 11.8125 C -3.195312 12.132812 -3.785156 12.296875 -4.328125 12.296875 Z M 0.921875 -5.421875 C -0.535156 -3.640625 -1.265625 -2.234375 -1.265625 -1.203125 C -1.265625 -0.691406 -1.03125 -0.4375 -0.5625 -0.4375 C 0.726562 -0.4375 2.332031 -1.3125 4.25 -3.0625 C 4.945312 -3.6875 5.535156 -4.285156 6.015625 -4.859375 C 6.859375 -5.859375 7.363281 -6.472656 7.53125 -6.703125 C 8.019531 -7.367188 8.265625 -8.15625 8.265625 -9.0625 C 8.265625 -9.507812 8.019531 -9.804688 7.53125 -9.953125 C 7.382812 -9.992188 7.210938 -10.015625 7.015625 -10.015625 C 6.828125 -10.015625 6.519531 -9.921875 6.09375 -9.734375 C 5.675781 -9.554688 5.195312 -9.28125 4.65625 -8.90625 C 3.394531 -8.050781 2.148438 -6.890625 0.921875 -5.421875 Z M -4.875 11.4375 C -4.875 11.78125 -4.6875 11.953125 -4.3125 11.953125 C -3.945312 11.953125 -3.484375 11.773438 -2.921875 11.421875 C -2.367188 11.078125 -1.78125 10.601562 -1.15625 10 C -0.53125 9.394531 0.101562 8.679688 0.75 7.859375 C 1.40625 7.035156 2.019531 6.144531 2.59375 5.1875 C 3.875 3.082031 4.722656 1.054688 5.140625 -0.890625 C 5.179688 -1.117188 5.179688 -1.296875 5.140625 -1.421875 L 0.90625 3.53125 C -1.976562 7.0625 -3.660156 9.210938 -4.140625 9.984375 C -4.628906 10.765625 -4.875 11.25 -4.875 11.4375 Z M -4.875 11.4375 "/></g></g></g><g fill="#000000" fill-opacity="1"><g transform="translate(85.003524, 194.624987)"><g><path d="M -1.265625 -0.921875 C -1.265625 -0.546875 -1.015625 -0.359375 -0.515625 -0.359375 C 0.179688 -0.359375 0.929688 -0.625 1.734375 -1.15625 C 3.460938 -2.3125 5.265625 -4.039062 7.140625 -6.34375 C 7.140625 -6.34375 8.320312 -7.765625 10.6875 -10.609375 C 11.1875 -10.546875 11.640625 -10.515625 12.046875 -10.515625 C 12.453125 -10.515625 12.789062 -10.53125 13.0625 -10.5625 L 11.53125 -8.796875 L 6 -2.0625 C 5.632812 -1.613281 5.453125 -1.25 5.453125 -0.96875 C 5.453125 -0.59375 5.703125 -0.40625 6.203125 -0.40625 C 6.703125 -0.40625 7.21875 -0.535156 7.75 -0.796875 C 8.289062 -1.066406 8.828125 -1.40625 9.359375 -1.8125 C 9.898438 -2.21875 10.425781 -2.660156 10.9375 -3.140625 C 11.445312 -3.628906 11.910156 -4.09375 12.328125 -4.53125 L 13.96875 -6.34375 L 14.28125 -6.078125 L 13.671875 -5.390625 C 13.367188 -5.046875 13 -4.648438 12.5625 -4.203125 L 11.109375 -2.78125 C 9.117188 -0.90625 7.46875 0.03125 6.15625 0.03125 C 5.726562 0.03125 5.375 -0.0820312 5.09375 -0.3125 C 4.820312 -0.550781 4.675781 -0.867188 4.65625 -1.265625 C 4.632812 -2.023438 4.898438 -2.882812 5.453125 -3.84375 C 3.054688 -1.257812 1.023438 0.03125 -0.640625 0.03125 C -1.578125 0.03125 -2.175781 -0.300781 -2.4375 -0.96875 C -2.507812 -1.15625 -2.550781 -1.394531 -2.5625 -1.6875 C -2.570312 -1.976562 -2.5 -2.328125 -2.34375 -2.734375 C -2.195312 -3.140625 -1.972656 -3.578125 -1.671875 -4.046875 C -1.367188 -4.523438 -1 -5.039062 -0.5625 -5.59375 L 2.25 -9 C 2.6875 -9.539062 3.148438 -10.078125 3.640625 -10.609375 C 4.046875 -10.546875 4.375 -10.515625 4.625 -10.515625 L 5.15625 -10.515625 C 5.601562 -10.515625 5.890625 -10.53125 6.015625 -10.5625 C 4.796875 -9.226562 3.941406 -8.265625 3.453125 -7.671875 L 0.34375 -3.9375 C -0.75 -2.664062 -1.285156 -1.660156 -1.265625 -0.921875 Z M -1.265625 -0.921875 "/></g></g></g><g fill="#000000" fill-opacity="1"><g transform="translate(98.859514, 194.624987)"><g><path d="M 8.265625 -14.125 C 8.117188 -13.988281 7.953125 -13.878906 7.765625 -13.796875 C 7.578125 -13.722656 7.363281 -13.6875 7.125 -13.6875 C 6.882812 -13.6875 6.675781 -13.773438 6.5 -13.953125 C 6.332031 -14.140625 6.25 -14.347656 6.25 -14.578125 C 6.25 -14.804688 6.289062 -15.007812 6.375 -15.1875 C 6.457031 -15.363281 6.570312 -15.519531 6.71875 -15.65625 C 7.019531 -15.96875 7.347656 -16.125 7.703125 -16.125 C 8.066406 -16.125 8.332031 -16.023438 8.5 -15.828125 C 8.675781 -15.640625 8.765625 -15.429688 8.765625 -15.203125 C 8.765625 -14.972656 8.71875 -14.769531 8.625 -14.59375 C 8.539062 -14.414062 8.421875 -14.257812 8.265625 -14.125 Z M -1.65625 -0.890625 C -1.65625 -0.566406 -1.347656 -0.40625 -0.734375 -0.40625 C -0.117188 -0.40625 0.457031 -0.546875 1 -0.828125 C 1.550781 -1.109375 2.101562 -1.457031 2.65625 -1.875 C 3.21875 -2.300781 3.757812 -2.765625 4.28125 -3.265625 L 5.6875 -4.671875 C 6.101562 -5.109375 6.445312 -5.484375 6.71875 -5.796875 C 6.988281 -6.117188 7.148438 -6.304688 7.203125 -6.359375 L 7.515625 -6.078125 C 7.410156 -5.972656 7.210938 -5.75 6.921875 -5.40625 C 6.640625 -5.070312 6.285156 -4.675781 5.859375 -4.21875 C 5.429688 -3.769531 4.953125 -3.296875 4.421875 -2.796875 C 3.890625 -2.296875 3.332031 -1.835938 2.75 -1.421875 C 1.40625 -0.453125 0.226562 0.03125 -0.78125 0.03125 C -1.425781 0.03125 -1.941406 -0.0820312 -2.328125 -0.3125 C -2.710938 -0.550781 -2.90625 -0.820312 -2.90625 -1.125 C -2.90625 -1.425781 -2.875 -1.695312 -2.8125 -1.9375 C -2.75 -2.175781 -2.632812 -2.460938 -2.46875 -2.796875 C -2.300781 -3.128906 -2.066406 -3.519531 -1.765625 -3.96875 C -1.472656 -4.414062 -1.085938 -4.953125 -0.609375 -5.578125 C -0.140625 -6.203125 0.429688 -6.925781 1.109375 -7.75 L 3.515625 -10.59375 C 3.640625 -10.5625 3.894531 -10.546875 4.28125 -10.546875 L 5.015625 -10.546875 C 5.285156 -10.546875 5.503906 -10.554688 5.671875 -10.578125 C 2.222656 -6.460938 0.285156 -4.117188 -0.140625 -3.546875 C -0.578125 -2.984375 -0.898438 -2.539062 -1.109375 -2.21875 C -1.472656 -1.664062 -1.65625 -1.222656 -1.65625 -0.890625 Z M -1.65625 -0.890625 "/></g></g></g><g fill="#000000" fill-opacity="1"><g transform="translate(105.93591, 194.624987)"><g><path d="M 3.890625 -10.609375 C 4.390625 -10.546875 4.851562 -10.515625 5.28125 -10.515625 C 5.707031 -10.515625 6.0625 -10.53125 6.34375 -10.5625 C 5.414062 -9.726562 4.722656 -9.050781 4.265625 -8.53125 L 2.171875 -6.21875 C 2.003906 -6.03125 1.785156 -5.800781 1.515625 -5.53125 L -0.25 -3.65625 C -1.363281 -2.4375 -1.921875 -1.617188 -1.921875 -1.203125 C -1.921875 -0.785156 -1.84375 -0.539062 -1.6875 -0.46875 C -1.53125 -0.40625 -1.238281 -0.375 -0.8125 -0.375 C -0.394531 -0.375 0.140625 -0.492188 0.796875 -0.734375 C 1.453125 -0.984375 2.117188 -1.304688 2.796875 -1.703125 C 4.023438 -2.421875 5.125 -3.207031 6.09375 -4.0625 C 7.070312 -4.925781 7.734375 -5.578125 8.078125 -6.015625 C 8.421875 -6.453125 8.679688 -6.875 8.859375 -7.28125 C 9.148438 -7.945312 9.296875 -8.773438 9.296875 -9.765625 C 9.296875 -10.148438 9.414062 -10.460938 9.65625 -10.703125 C 9.894531 -10.953125 10.1875 -11.078125 10.53125 -11.078125 C 11.113281 -11.078125 11.40625 -10.789062 11.40625 -10.21875 C 11.40625 -9.03125 10.367188 -7.429688 8.296875 -5.421875 L 7.875 -5.03125 C 7.226562 -4.15625 7.0625 -3.539062 7.375 -3.1875 C 7.488281 -3.070312 7.703125 -3.015625 8.015625 -3.015625 C 8.335938 -3.015625 8.722656 -3.144531 9.171875 -3.40625 C 9.617188 -3.664062 10.054688 -3.972656 10.484375 -4.328125 C 10.921875 -4.691406 11.320312 -5.0625 11.6875 -5.4375 L 12.546875 -6.34375 L 12.875 -6.078125 C 10.738281 -3.773438 9.0625 -2.625 7.84375 -2.625 C 7.332031 -2.625 7.007812 -2.773438 6.875 -3.078125 C 6.75 -3.378906 6.800781 -3.78125 7.03125 -4.28125 C 4.769531 -2.382812 2.664062 -1.082031 0.71875 -0.375 C 0 -0.101562 -0.65625 0.03125 -1.25 0.03125 C -1.84375 0.03125 -2.285156 -0.0820312 -2.578125 -0.3125 C -2.867188 -0.550781 -3.015625 -0.835938 -3.015625 -1.171875 C -3.015625 -1.515625 -2.976562 -1.820312 -2.90625 -2.09375 C -2.832031 -2.375 -2.6875 -2.707031 -2.46875 -3.09375 C -2.070312 -3.800781 -1.441406 -4.691406 -0.578125 -5.765625 C 0.273438 -6.835938 1.035156 -7.71875 1.703125 -8.40625 Z M 3.890625 -10.609375 "/></g></g></g><g fill="#000000" fill-opacity="1"><g transform="translate(118.370373, 194.624987)"><g><path d="M 6.03125 -1.34375 C 5.375 -0.925781 4.660156 -0.582031 3.890625 -0.3125 C 3.128906 -0.0390625 2.40625 0.09375 1.71875 0.09375 C 1.03125 0.09375 0.503906 0.0234375 0.140625 -0.109375 C -0.210938 -0.253906 -0.503906 -0.453125 -0.734375 -0.703125 C -1.710938 -1.765625 -1.707031 -3.332031 -0.71875 -5.40625 C -0.289062 -6.320312 0.351562 -7.15625 1.21875 -7.90625 C 2.082031 -8.664062 2.84375 -9.234375 3.5 -9.609375 C 4.769531 -10.335938 5.960938 -10.703125 7.078125 -10.703125 C 8.179688 -10.703125 8.757812 -10.359375 8.8125 -9.671875 C 8.882812 -8.554688 7.53125 -7.34375 4.75 -6.03125 C 3.726562 -5.550781 2.441406 -5.054688 0.890625 -4.546875 C 0.273438 -3.546875 -0.03125 -2.726562 -0.03125 -2.09375 C -0.03125 -1.46875 0.128906 -1.019531 0.453125 -0.75 C 0.785156 -0.488281 1.265625 -0.359375 1.890625 -0.359375 C 2.523438 -0.359375 3.207031 -0.492188 3.9375 -0.765625 C 4.675781 -1.035156 5.363281 -1.378906 6 -1.796875 C 6.644531 -2.210938 7.226562 -2.664062 7.75 -3.15625 C 8.269531 -3.644531 8.726562 -4.113281 9.125 -4.5625 C 9.53125 -5.007812 9.859375 -5.394531 10.109375 -5.71875 C 10.367188 -6.050781 10.546875 -6.257812 10.640625 -6.34375 L 10.96875 -6.078125 C 10.832031 -5.960938 10.625 -5.726562 10.34375 -5.375 C 10.070312 -5.019531 9.722656 -4.613281 9.296875 -4.15625 C 8.878906 -3.707031 8.394531 -3.234375 7.84375 -2.734375 C 7.300781 -2.234375 6.695312 -1.769531 6.03125 -1.34375 Z M 1.25 -5.09375 C 4.394531 -6.195312 6.421875 -7.296875 7.328125 -8.390625 C 7.628906 -8.753906 7.78125 -9.109375 7.78125 -9.453125 C 7.78125 -10.035156 7.507812 -10.328125 6.96875 -10.328125 C 6.007812 -10.328125 4.8125 -9.488281 3.375 -7.8125 C 2.375 -6.644531 1.664062 -5.738281 1.25 -5.09375 Z M 1.25 -5.09375 "/></g></g></g><g fill="#000000" fill-opacity="1"><g transform="translate(128.899051, 194.624987)"><g><path d="M -1.515625 -0.921875 C -1.515625 -0.578125 -1.265625 -0.40625 -0.765625 -0.40625 C -0.265625 -0.40625 0.265625 -0.535156 0.828125 -0.796875 C 1.398438 -1.066406 1.960938 -1.40625 2.515625 -1.8125 C 3.078125 -2.21875 3.617188 -2.660156 4.140625 -3.140625 C 4.660156 -3.628906 5.132812 -4.09375 5.5625 -4.53125 L 6.640625 -5.6875 C 6.929688 -6.019531 7.128906 -6.238281 7.234375 -6.34375 L 7.546875 -6.078125 C 7.429688 -5.960938 7.21875 -5.734375 6.90625 -5.390625 C 6.601562 -5.046875 6.226562 -4.648438 5.78125 -4.203125 C 5.34375 -3.753906 4.847656 -3.28125 4.296875 -2.78125 C 3.753906 -2.28125 3.1875 -1.820312 2.59375 -1.40625 C 1.207031 -0.445312 -0.00390625 0.03125 -1.046875 0.03125 C -1.484375 0.03125 -1.84375 -0.0859375 -2.125 -0.328125 C -2.414062 -0.566406 -2.5625 -0.820312 -2.5625 -1.09375 C -2.5625 -1.375 -2.546875 -1.597656 -2.515625 -1.765625 C -2.492188 -1.929688 -2.441406 -2.117188 -2.359375 -2.328125 C -2.273438 -2.546875 -2.15625 -2.796875 -2 -3.078125 C -1.84375 -3.367188 -1.632812 -3.71875 -1.375 -4.125 L 1.015625 -7.65625 L 13.09375 -24.921875 C 13.84375 -24.816406 14.566406 -24.816406 15.265625 -24.921875 C 5.328125 -11.109375 0.179688 -3.9375 -0.171875 -3.40625 C -0.523438 -2.882812 -0.785156 -2.488281 -0.953125 -2.21875 C -1.117188 -1.957031 -1.242188 -1.742188 -1.328125 -1.578125 C -1.453125 -1.328125 -1.515625 -1.109375 -1.515625 -0.921875 Z M -1.515625 -0.921875 "/></g></g></g><g fill="#000000" fill-opacity="1"><g transform="translate(136.022311, 194.624987)"><g/></g></g><g fill="#000000" fill-opacity="1"><g transform="translate(147.004004, 194.624987)"><g><path d="M 7.359375 -0.28125 C 7.046875 -0.34375 6.703125 -0.375 6.328125 -0.375 C 5.753906 -0.375 5.257812 -0.347656 4.84375 -0.296875 L 6.15625 -2.484375 C 4.863281 -3.503906 4.019531 -4.8125 3.625 -6.40625 C 3.5 -6.925781 3.4375 -7.472656 3.4375 -8.046875 C 3.4375 -8.617188 3.507812 -9.15625 3.65625 -9.65625 C 3.8125 -10.164062 4.023438 -10.609375 4.296875 -10.984375 C 4.867188 -11.773438 5.582031 -12.171875 6.4375 -12.171875 C 7.09375 -12.171875 7.65625 -11.882812 8.125 -11.3125 C 8.644531 -10.675781 8.90625 -9.84375 8.90625 -8.8125 C 8.90625 -7.945312 8.566406 -6.6875 7.890625 -5.03125 C 7.679688 -4.519531 7.445312 -4.007812 7.1875 -3.5 C 9.675781 -7.34375 12.269531 -10.617188 14.96875 -13.328125 L 17.078125 -15.375 C 17.265625 -15.539062 17.414062 -15.625 17.53125 -15.625 C 17.644531 -15.625 17.703125 -15.582031 17.703125 -15.5 C 17.703125 -15.40625 17.414062 -15.082031 16.84375 -14.53125 C 16.28125 -13.988281 15.585938 -13.222656 14.765625 -12.234375 C 13.941406 -11.253906 13.132812 -10.207031 12.34375 -9.09375 C 10.675781 -6.71875 9.253906 -4.304688 8.078125 -1.859375 C 8.734375 -1.585938 9.398438 -1.453125 10.078125 -1.453125 C 11.441406 -1.453125 12.625 -1.875 13.625 -2.71875 C 14.5625 -3.5625 15.03125 -4.492188 15.03125 -5.515625 C 15.03125 -5.566406 15.019531 -5.644531 15 -5.75 C 14.582031 -5.769531 14.375 -5.957031 14.375 -6.3125 C 14.375 -6.425781 14.414062 -6.53125 14.5 -6.625 C 14.59375 -6.71875 14.726562 -6.765625 14.90625 -6.765625 C 15.082031 -6.765625 15.238281 -6.675781 15.375 -6.5 C 15.507812 -6.320312 15.578125 -5.988281 15.578125 -5.5 C 15.578125 -5.007812 15.425781 -4.472656 15.125 -3.890625 C 14.820312 -3.304688 14.40625 -2.800781 13.875 -2.375 C 12.78125 -1.476562 11.507812 -1.03125 10.0625 -1.03125 C 9.34375 -1.03125 8.617188 -1.175781 7.890625 -1.46875 Z M 6.390625 -2.9375 C 7.753906 -5.46875 8.4375 -7.484375 8.4375 -8.984375 C 8.4375 -10.171875 8.050781 -10.96875 7.28125 -11.375 C 7.0625 -11.488281 6.820312 -11.546875 6.5625 -11.546875 C 6.3125 -11.546875 6.046875 -11.445312 5.765625 -11.25 C 5.492188 -11.050781 5.25 -10.789062 5.03125 -10.46875 C 4.5625 -9.738281 4.328125 -8.882812 4.328125 -7.90625 C 4.328125 -5.875 5.015625 -4.21875 6.390625 -2.9375 Z M 6.390625 -2.9375 "/></g></g></g><g fill="#000000" fill-opacity="1"><g transform="translate(169.685964, 194.624987)"><g/></g></g><g fill="#000000" fill-opacity="1"><g transform="translate(180.667656, 194.624987)"><g><path d="M 11.71875 -3.109375 C 10.238281 -3.109375 8.863281 -3.304688 7.59375 -3.703125 C 6.132812 -2.492188 5.039062 -1.65625 4.3125 -1.1875 C 2.957031 -0.34375 1.578125 0.078125 0.171875 0.078125 C -1.429688 0.078125 -2.46875 -0.382812 -2.9375 -1.3125 C -3.070312 -1.59375 -3.140625 -1.867188 -3.140625 -2.140625 C -3.140625 -2.410156 -3.09375 -2.628906 -3 -2.796875 C -2.90625 -2.960938 -2.789062 -3.09375 -2.65625 -3.1875 C -2.375 -3.382812 -2.046875 -3.484375 -1.671875 -3.484375 C -1.148438 -3.484375 -0.890625 -3.25 -0.890625 -2.78125 C -0.890625 -2.570312 -0.972656 -2.390625 -1.140625 -2.234375 C -1.316406 -2.085938 -1.550781 -2.015625 -1.84375 -2.015625 C -2.144531 -2.015625 -2.367188 -2.066406 -2.515625 -2.171875 L -2.515625 -2.0625 C -2.515625 -0.914062 -1.578125 -0.34375 0.296875 -0.34375 C 1.597656 -0.34375 3.070312 -0.914062 4.71875 -2.0625 L 7.046875 -3.890625 C 5.566406 -4.441406 4.382812 -5.222656 3.5 -6.234375 C 2.644531 -7.191406 2.1875 -8.25 2.125 -9.40625 C 2.0625 -10.539062 2.4375 -11.507812 3.25 -12.3125 C 4.101562 -13.15625 5.257812 -13.578125 6.71875 -13.578125 C 8.75 -13.578125 10.457031 -12.707031 11.84375 -10.96875 C 12.257812 -10.4375 12.613281 -9.867188 12.90625 -9.265625 C 16.25 -12.472656 18.4375 -14.535156 19.46875 -15.453125 L 22.03125 -17.671875 C 25.488281 -20.515625 28.035156 -21.9375 29.671875 -21.9375 C 29.859375 -21.9375 29.953125 -21.90625 29.953125 -21.84375 C 29.953125 -21.769531 29.863281 -21.703125 29.6875 -21.640625 C 29.519531 -21.578125 29.332031 -21.441406 29.125 -21.234375 C 28.914062 -21.023438 28.613281 -20.675781 28.21875 -20.1875 L 26.6875 -18.234375 L 16.109375 -4.171875 C 19.015625 -5.035156 21.28125 -6.582031 22.90625 -8.8125 C 23.425781 -9.519531 23.773438 -10.113281 23.953125 -10.59375 C 24.191406 -11.226562 24.335938 -11.546875 24.390625 -11.546875 C 24.421875 -11.546875 24.46875 -11.5 24.53125 -11.40625 C 24.601562 -11.320312 24.628906 -11.132812 24.609375 -10.84375 C 24.597656 -10.5625 24.523438 -10.222656 24.390625 -9.828125 C 24.253906 -9.441406 24.082031 -9.070312 23.875 -8.71875 C 23.53125 -8.125 22.960938 -7.453125 22.171875 -6.703125 C 20.578125 -5.148438 18.390625 -4.085938 15.609375 -3.515625 L 12.9375 0.015625 L 11.9375 -0.046875 C 11.601562 -0.0664062 11.335938 -0.078125 11.140625 -0.078125 C 10.953125 -0.078125 10.789062 -0.0664062 10.65625 -0.046875 L 10.21875 0.015625 L 12.53125 -2.84375 C 12.5625 -2.894531 12.59375 -2.941406 12.625 -2.984375 C 12.65625 -3.035156 12.679688 -3.085938 12.703125 -3.140625 C 12.367188 -3.117188 12.039062 -3.109375 11.71875 -3.109375 Z M 13.125 -8.78125 C 13.550781 -7.6875 13.765625 -6.75 13.765625 -5.96875 C 13.765625 -5.1875 13.703125 -4.570312 13.578125 -4.125 L 19.375 -11.140625 C 23.195312 -15.585938 25.566406 -18.296875 26.484375 -19.265625 C 27.398438 -20.242188 28.078125 -20.9375 28.515625 -21.34375 L 27.46875 -20.90625 C 26.0625 -20.289062 24.050781 -18.851562 21.4375 -16.59375 L 18.15625 -13.625 Z M 7.421875 -4.203125 C 9.453125 -6.015625 11.160156 -7.59375 12.546875 -8.9375 C 11.679688 -10.90625 10.363281 -12.195312 8.59375 -12.8125 C 8 -13.007812 7.414062 -13.109375 6.84375 -13.109375 C 6.28125 -13.109375 5.773438 -13.003906 5.328125 -12.796875 C 4.890625 -12.597656 4.503906 -12.332031 4.171875 -12 C 3.453125 -11.28125 3.09375 -10.425781 3.09375 -9.4375 C 3.09375 -7.695312 3.90625 -6.265625 5.53125 -5.140625 C 6.070312 -4.765625 6.703125 -4.453125 7.421875 -4.203125 Z M 7.96875 -4.03125 C 9.113281 -3.707031 10.394531 -3.546875 11.8125 -3.546875 C 12.175781 -3.546875 12.539062 -3.5625 12.90625 -3.59375 C 13.144531 -4.207031 13.265625 -4.800781 13.265625 -5.375 C 13.265625 -6.4375 13.09375 -7.453125 12.75 -8.421875 C 10.40625 -6.210938 8.8125 -4.75 7.96875 -4.03125 Z M 7.96875 -4.03125 "/></g></g></g><g fill="#000000" fill-opacity="1"><g transform="translate(204.349372, 194.624987)"><g><path d="M 4.8125 -2.875 C 4.9375 -2.851562 5.09375 -2.84375 5.28125 -2.84375 C 5.476562 -2.84375 5.710938 -2.914062 5.984375 -3.0625 C 6.253906 -3.207031 6.53125 -3.394531 6.8125 -3.625 C 7.101562 -3.851562 7.390625 -4.101562 7.671875 -4.375 C 7.953125 -4.65625 8.207031 -4.921875 8.4375 -5.171875 C 8.675781 -5.429688 8.882812 -5.664062 9.0625 -5.875 L 9.421875 -6.34375 L 9.765625 -6.078125 C 9.640625 -5.953125 9.476562 -5.78125 9.28125 -5.5625 L 8.625 -4.8125 C 7.175781 -3.25 6.03125 -2.46875 5.1875 -2.46875 L 4.921875 -2.46875 C 4.835938 -2.46875 4.753906 -2.476562 4.671875 -2.5 C 3.796875 -0.59375 1.9375 0.359375 -0.90625 0.359375 C -2.144531 0.359375 -3.046875 0.0625 -3.609375 -0.53125 C -3.847656 -0.789062 -3.96875 -1.125 -3.96875 -1.53125 C -3.96875 -1.9375 -3.867188 -2.28125 -3.671875 -2.5625 C -3.484375 -2.851562 -3.257812 -3.09375 -3 -3.28125 C -2.46875 -3.664062 -1.988281 -3.859375 -1.5625 -3.859375 C -1.144531 -3.859375 -0.9375 -3.660156 -0.9375 -3.265625 C -0.96875 -2.992188 -1.195312 -2.789062 -1.625 -2.65625 C -1.757812 -2.613281 -1.890625 -2.59375 -2.015625 -2.59375 C -2.148438 -2.59375 -2.273438 -2.632812 -2.390625 -2.71875 C -2.515625 -2.8125 -2.613281 -2.878906 -2.6875 -2.921875 C -2.75 -2.859375 -2.828125 -2.785156 -2.921875 -2.703125 C -3.023438 -2.617188 -3.125 -2.519531 -3.21875 -2.40625 C -3.445312 -2.125 -3.5625 -1.832031 -3.5625 -1.53125 C -3.5625 -1.238281 -3.460938 -1.003906 -3.265625 -0.828125 C -3.066406 -0.648438 -2.832031 -0.515625 -2.5625 -0.421875 C -2.15625 -0.273438 -1.726562 -0.203125 -1.28125 -0.203125 C -0.84375 -0.203125 -0.390625 -0.296875 0.078125 -0.484375 C 0.554688 -0.671875 1.023438 -0.984375 1.484375 -1.421875 C 2.742188 -2.617188 3.425781 -4.394531 3.53125 -6.75 C 3.59375 -8.332031 3.785156 -9.570312 4.109375 -10.46875 C 4.117188 -10.5 4.125 -10.546875 4.125 -10.609375 L 0.4375 -6.078125 C 0.226562 -5.828125 0.078125 -5.664062 -0.015625 -5.59375 C -0.117188 -5.519531 -0.171875 -5.484375 -0.171875 -5.484375 C -0.296875 -5.472656 -0.378906 -5.503906 -0.421875 -5.578125 C -0.441406 -5.628906 -0.394531 -5.726562 -0.28125 -5.875 C 2.40625 -9.082031 3.914062 -10.90625 4.25 -11.34375 C 4.414062 -12.15625 4.6875 -12.5625 5.0625 -12.5625 C 5.238281 -12.5625 5.382812 -12.515625 5.5 -12.421875 C 5.625 -12.328125 5.6875 -12.207031 5.6875 -12.0625 C 5.675781 -11.863281 5.515625 -11.582031 5.203125 -11.21875 C 4.898438 -10.863281 4.710938 -10.632812 4.640625 -10.53125 C 4.578125 -10.4375 4.535156 -10.351562 4.515625 -10.28125 C 4.492188 -10.21875 4.484375 -10.15625 4.484375 -10.09375 L 4.484375 -9.90625 C 4.472656 -9.625 4.5 -9.289062 4.5625 -8.90625 L 4.953125 -6.3125 C 5.179688 -4.894531 5.132812 -3.75 4.8125 -2.875 Z M 4.8125 -2.875 "/></g></g></g><g fill="#000000" fill-opacity="1"><g transform="translate(213.659598, 194.624987)"><g><path d="M 7.03125 -2.515625 C 6.644531 -2.515625 6.363281 -2.671875 6.1875 -2.984375 C 4.945312 -1.578125 3.609375 -0.644531 2.171875 -0.1875 C 1.691406 -0.0390625 1.222656 0.03125 0.765625 0.03125 C 0.316406 0.03125 -0.0664062 -0.0195312 -0.390625 -0.125 C -0.710938 -0.226562 -0.976562 -0.375 -1.1875 -0.5625 C -2.03125 -1.289062 -2.113281 -2.546875 -1.4375 -4.328125 C -1.175781 -5.023438 -0.835938 -5.675781 -0.421875 -6.28125 C -0.015625 -6.882812 0.441406 -7.441406 0.953125 -7.953125 C 1.472656 -8.472656 2.03125 -8.9375 2.625 -9.34375 C 3.96875 -10.25 5.28125 -10.703125 6.5625 -10.703125 C 7.113281 -10.703125 7.585938 -10.554688 7.984375 -10.265625 C 8.390625 -9.984375 8.609375 -9.570312 8.640625 -9.03125 C 8.671875 -8.5 8.640625 -8 8.546875 -7.53125 C 8.453125 -7.0625 8.3125 -6.59375 8.125 -6.125 C 7.75 -5.164062 7.21875 -4.257812 6.53125 -3.40625 C 6.601562 -3.101562 6.800781 -2.953125 7.125 -2.953125 C 7.457031 -2.953125 7.769531 -3.023438 8.0625 -3.171875 C 8.363281 -3.328125 8.660156 -3.515625 8.953125 -3.734375 C 9.253906 -3.960938 9.546875 -4.210938 9.828125 -4.484375 C 10.117188 -4.765625 10.382812 -5.03125 10.625 -5.28125 L 11.21875 -5.9375 C 11.382812 -6.132812 11.503906 -6.269531 11.578125 -6.34375 L 11.921875 -6.078125 C 11.785156 -5.953125 11.613281 -5.773438 11.40625 -5.546875 C 11.195312 -5.316406 10.960938 -5.070312 10.703125 -4.8125 C 10.703125 -4.8125 10.425781 -4.539062 9.875 -4 C 8.800781 -3.007812 7.851562 -2.515625 7.03125 -2.515625 Z M 0.546875 -0.5625 C 0.710938 -0.476562 0.945312 -0.4375 1.25 -0.4375 C 1.925781 -0.4375 2.796875 -0.816406 3.859375 -1.578125 C 4.671875 -2.160156 5.394531 -2.832031 6.03125 -3.59375 L 6.03125 -3.65625 C 6.03125 -4.539062 6.363281 -5.207031 7.03125 -5.65625 C 7.207031 -5.78125 7.375 -5.867188 7.53125 -5.921875 C 8.03125 -6.984375 8.265625 -7.851562 8.234375 -8.53125 C 8.171875 -9.601562 7.773438 -10.140625 7.046875 -10.140625 C 5.816406 -10.140625 4.09375 -8.753906 1.875 -5.984375 C 0.445312 -4.191406 -0.222656 -2.796875 -0.140625 -1.796875 C -0.140625 -1.222656 0.0859375 -0.8125 0.546875 -0.5625 Z M 0.546875 -0.5625 "/></g></g></g><g fill="#000000" fill-opacity="1"><g transform="translate(225.125547, 194.624987)"><g><path d="M 8.0625 -9.390625 C 8.039062 -9.992188 7.660156 -10.296875 6.921875 -10.296875 C 5.410156 -10.296875 3.457031 -8.722656 1.0625 -5.578125 C 0.0703125 -4.265625 -0.421875 -3.078125 -0.421875 -2.015625 C -0.421875 -1.554688 -0.296875 -1.207031 -0.046875 -0.96875 C 0.390625 -0.5625 0.945312 -0.359375 1.625 -0.359375 C 2.3125 -0.359375 3.035156 -0.5 3.796875 -0.78125 C 4.566406 -1.0625 5.28125 -1.414062 5.9375 -1.84375 C 6.59375 -2.269531 7.191406 -2.734375 7.734375 -3.234375 C 8.273438 -3.742188 8.742188 -4.21875 9.140625 -4.65625 C 9.535156 -5.101562 9.847656 -5.484375 10.078125 -5.796875 C 10.304688 -6.109375 10.441406 -6.289062 10.484375 -6.34375 L 10.828125 -6.078125 L 10.40625 -5.515625 C 8.445312 -2.941406 6.257812 -1.21875 3.84375 -0.34375 C 3.03125 -0.0507812 2.265625 0.09375 1.546875 0.09375 C 0.828125 0.09375 0.265625 0.0195312 -0.140625 -0.125 C -0.546875 -0.269531 -0.882812 -0.46875 -1.15625 -0.71875 C -1.675781 -1.226562 -1.9375 -1.863281 -1.9375 -2.625 C -1.9375 -4.113281 -1.289062 -5.628906 0 -7.171875 C 1.007812 -8.378906 2.207031 -9.304688 3.59375 -9.953125 C 4.71875 -10.472656 5.8125 -10.722656 6.875 -10.703125 C 7.8125 -10.671875 8.40625 -10.351562 8.65625 -9.75 C 8.90625 -9.132812 8.769531 -8.570312 8.25 -8.0625 C 7.90625 -7.707031 7.570312 -7.53125 7.25 -7.53125 C 6.5 -7.53125 6.113281 -7.835938 6.09375 -8.453125 C 6.082031 -8.742188 6.191406 -8.984375 6.421875 -9.171875 C 6.660156 -9.367188 6.894531 -9.476562 7.125 -9.5 C 7.457031 -9.519531 7.769531 -9.460938 8.0625 -9.328125 Z M 8.0625 -9.390625 "/></g></g></g><g fill="#000000" fill-opacity="1"><g transform="translate(235.513635, 194.624987)"><g><path d="M 8.265625 -14.125 C 8.117188 -13.988281 7.953125 -13.878906 7.765625 -13.796875 C 7.578125 -13.722656 7.363281 -13.6875 7.125 -13.6875 C 6.882812 -13.6875 6.675781 -13.773438 6.5 -13.953125 C 6.332031 -14.140625 6.25 -14.347656 6.25 -14.578125 C 6.25 -14.804688 6.289062 -15.007812 6.375 -15.1875 C 6.457031 -15.363281 6.570312 -15.519531 6.71875 -15.65625 C 7.019531 -15.96875 7.347656 -16.125 7.703125 -16.125 C 8.066406 -16.125 8.332031 -16.023438 8.5 -15.828125 C 8.675781 -15.640625 8.765625 -15.429688 8.765625 -15.203125 C 8.765625 -14.972656 8.71875 -14.769531 8.625 -14.59375 C 8.539062 -14.414062 8.421875 -14.257812 8.265625 -14.125 Z M -1.65625 -0.890625 C -1.65625 -0.566406 -1.347656 -0.40625 -0.734375 -0.40625 C -0.117188 -0.40625 0.457031 -0.546875 1 -0.828125 C 1.550781 -1.109375 2.101562 -1.457031 2.65625 -1.875 C 3.21875 -2.300781 3.757812 -2.765625 4.28125 -3.265625 L 5.6875 -4.671875 C 6.101562 -5.109375 6.445312 -5.484375 6.71875 -5.796875 C 6.988281 -6.117188 7.148438 -6.304688 7.203125 -6.359375 L 7.515625 -6.078125 C 7.410156 -5.972656 7.210938 -5.75 6.921875 -5.40625 C 6.640625 -5.070312 6.285156 -4.675781 5.859375 -4.21875 C 5.429688 -3.769531 4.953125 -3.296875 4.421875 -2.796875 C 3.890625 -2.296875 3.332031 -1.835938 2.75 -1.421875 C 1.40625 -0.453125 0.226562 0.03125 -0.78125 0.03125 C -1.425781 0.03125 -1.941406 -0.0820312 -2.328125 -0.3125 C -2.710938 -0.550781 -2.90625 -0.820312 -2.90625 -1.125 C -2.90625 -1.425781 -2.875 -1.695312 -2.8125 -1.9375 C -2.75 -2.175781 -2.632812 -2.460938 -2.46875 -2.796875 C -2.300781 -3.128906 -2.066406 -3.519531 -1.765625 -3.96875 C -1.472656 -4.414062 -1.085938 -4.953125 -0.609375 -5.578125 C -0.140625 -6.203125 0.429688 -6.925781 1.109375 -7.75 L 3.515625 -10.59375 C 3.640625 -10.5625 3.894531 -10.546875 4.28125 -10.546875 L 5.015625 -10.546875 C 5.285156 -10.546875 5.503906 -10.554688 5.671875 -10.578125 C 2.222656 -6.460938 0.285156 -4.117188 -0.140625 -3.546875 C -0.578125 -2.984375 -0.898438 -2.539062 -1.109375 -2.21875 C -1.472656 -1.664062 -1.65625 -1.222656 -1.65625 -0.890625 Z M -1.65625 -0.890625 "/></g></g></g><g fill="#000000" fill-opacity="1"><g transform="translate(242.590042, 194.624987)"><g><path d="M 6.234375 0.03125 C 5.191406 0.03125 4.671875 -0.289062 4.671875 -0.9375 C 4.671875 -1.46875 4.972656 -2.132812 5.578125 -2.9375 L 6.5625 -4.1875 L 6.40625 -4.25 C 4.65625 -2.09375 3.003906 -0.738281 1.453125 -0.1875 C 1.023438 -0.0390625 0.65625 0.03125 0.34375 0.03125 C -0.9375 0.03125 -1.578125 -0.648438 -1.578125 -2.015625 C -1.578125 -3.617188 -0.9375 -5.148438 0.34375 -6.609375 C 2.238281 -8.816406 4.144531 -10.125 6.0625 -10.53125 C 6.632812 -10.644531 7.125 -10.703125 7.53125 -10.703125 C 7.9375 -10.703125 8.253906 -10.671875 8.484375 -10.609375 C 8.722656 -10.554688 8.929688 -10.476562 9.109375 -10.375 C 9.484375 -10.132812 9.671875 -9.835938 9.671875 -9.484375 C 9.671875 -9.140625 9.609375 -8.8125 9.484375 -8.5 L 11.015625 -10.390625 C 11.296875 -10.304688 11.554688 -10.265625 11.796875 -10.265625 C 12.410156 -10.265625 12.851562 -10.285156 13.125 -10.328125 L 7.859375 -3.984375 C 6.609375 -2.523438 5.984375 -1.5 5.984375 -0.90625 C 5.984375 -0.570312 6.179688 -0.40625 6.578125 -0.40625 C 6.972656 -0.40625 7.425781 -0.523438 7.9375 -0.765625 C 8.457031 -1.003906 8.972656 -1.3125 9.484375 -1.6875 C 9.992188 -2.0625 10.488281 -2.476562 10.96875 -2.9375 C 11.457031 -3.394531 11.90625 -3.84375 12.3125 -4.28125 C 12.726562 -4.71875 13.09375 -5.125 13.40625 -5.5 L 14.15625 -6.34375 L 14.484375 -6.078125 L 13.6875 -5.171875 C 10.6875 -1.703125 8.203125 0.03125 6.234375 0.03125 Z M 1.90625 -5.59375 C 0.4375 -3.8125 -0.296875 -2.351562 -0.296875 -1.21875 C -0.296875 -0.695312 -0.0625 -0.4375 0.40625 -0.4375 C 1.925781 -0.4375 4.117188 -2.117188 6.984375 -5.484375 L 8.296875 -7.0625 C 8.921875 -8.007812 9.234375 -8.695312 9.234375 -9.125 C 9.234375 -9.851562 8.867188 -10.21875 8.140625 -10.21875 C 7.148438 -10.21875 5.726562 -9.375 3.875 -7.6875 C 3.238281 -7.101562 2.582031 -6.40625 1.90625 -5.59375 Z M 1.90625 -5.59375 "/></g></g></g><g fill="#000000" fill-opacity="1"><g transform="translate(256.633476, 194.624987)"><g><path d="M 5.96875 -4.25 C 3.414062 -1.394531 1.382812 0.03125 -0.125 0.03125 C -1.445312 0.03125 -2.109375 -0.648438 -2.109375 -2.015625 C -2.109375 -3.597656 -1.457031 -5.128906 -0.15625 -6.609375 C 2.1875 -9.335938 4.660156 -10.703125 7.265625 -10.703125 C 8.046875 -10.703125 8.625 -10.460938 9 -9.984375 C 9.113281 -9.828125 9.171875 -9.679688 9.171875 -9.546875 C 9.171875 -9.410156 9.164062 -9.320312 9.15625 -9.28125 C 9.15625 -9.25 9.15625 -9.207031 9.15625 -9.15625 L 16.90625 -20.28125 L 20.1875 -24.921875 C 20.570312 -24.753906 20.929688 -24.671875 21.265625 -24.671875 C 21.597656 -24.671875 21.898438 -24.6875 22.171875 -24.71875 L 7.328125 -3.90625 C 6.722656 -3.09375 6.265625 -2.445312 5.953125 -1.96875 C 5.648438 -1.5 5.5 -1.125 5.5 -0.84375 C 5.5 -0.570312 5.628906 -0.4375 5.890625 -0.4375 C 6.898438 -0.4375 8.046875 -0.90625 9.328125 -1.84375 C 10.503906 -2.695312 11.789062 -3.976562 13.1875 -5.6875 C 13.445312 -6.019531 13.628906 -6.238281 13.734375 -6.34375 L 14.078125 -6.078125 C 13.960938 -5.960938 13.757812 -5.734375 13.46875 -5.390625 C 13.1875 -5.046875 12.832031 -4.648438 12.40625 -4.203125 C 11.988281 -3.753906 11.515625 -3.28125 10.984375 -2.78125 C 10.460938 -2.28125 9.90625 -1.820312 9.3125 -1.40625 C 7.96875 -0.445312 6.78125 0.03125 5.75 0.03125 C 4.726562 0.03125 4.222656 -0.300781 4.234375 -0.96875 C 4.242188 -1.644531 4.863281 -2.71875 6.09375 -4.1875 Z M 1.4375 -5.5625 C -0.0507812 -3.75 -0.796875 -2.300781 -0.796875 -1.21875 C -0.796875 -0.695312 -0.535156 -0.4375 -0.015625 -0.4375 C 0.910156 -0.4375 2.203125 -1.191406 3.859375 -2.703125 L 5.140625 -3.9375 C 5.878906 -4.664062 6.484375 -5.363281 6.953125 -6.03125 L 8.34375 -8.015625 C 8.582031 -8.492188 8.703125 -8.90625 8.703125 -9.25 C 8.703125 -9.59375 8.578125 -9.835938 8.328125 -9.984375 C 8.078125 -10.140625 7.816406 -10.21875 7.546875 -10.21875 C 7.273438 -10.21875 6.929688 -10.125 6.515625 -9.9375 C 6.109375 -9.757812 5.644531 -9.476562 5.125 -9.09375 C 3.988281 -8.28125 2.757812 -7.101562 1.4375 -5.5625 Z M 1.4375 -5.5625 "/></g></g></g><g fill="#000000" fill-opacity="1"><g transform="translate(270.255148, 194.624987)"><g><path d="M 7.03125 -2.515625 C 6.644531 -2.515625 6.363281 -2.671875 6.1875 -2.984375 C 4.945312 -1.578125 3.609375 -0.644531 2.171875 -0.1875 C 1.691406 -0.0390625 1.222656 0.03125 0.765625 0.03125 C 0.316406 0.03125 -0.0664062 -0.0195312 -0.390625 -0.125 C -0.710938 -0.226562 -0.976562 -0.375 -1.1875 -0.5625 C -2.03125 -1.289062 -2.113281 -2.546875 -1.4375 -4.328125 C -1.175781 -5.023438 -0.835938 -5.675781 -0.421875 -6.28125 C -0.015625 -6.882812 0.441406 -7.441406 0.953125 -7.953125 C 1.472656 -8.472656 2.03125 -8.9375 2.625 -9.34375 C 3.96875 -10.25 5.28125 -10.703125 6.5625 -10.703125 C 7.113281 -10.703125 7.585938 -10.554688 7.984375 -10.265625 C 8.390625 -9.984375 8.609375 -9.570312 8.640625 -9.03125 C 8.671875 -8.5 8.640625 -8 8.546875 -7.53125 C 8.453125 -7.0625 8.3125 -6.59375 8.125 -6.125 C 7.75 -5.164062 7.21875 -4.257812 6.53125 -3.40625 C 6.601562 -3.101562 6.800781 -2.953125 7.125 -2.953125 C 7.457031 -2.953125 7.769531 -3.023438 8.0625 -3.171875 C 8.363281 -3.328125 8.660156 -3.515625 8.953125 -3.734375 C 9.253906 -3.960938 9.546875 -4.210938 9.828125 -4.484375 C 10.117188 -4.765625 10.382812 -5.03125 10.625 -5.28125 L 11.21875 -5.9375 C 11.382812 -6.132812 11.503906 -6.269531 11.578125 -6.34375 L 11.921875 -6.078125 C 11.785156 -5.953125 11.613281 -5.773438 11.40625 -5.546875 C 11.195312 -5.316406 10.960938 -5.070312 10.703125 -4.8125 C 10.703125 -4.8125 10.425781 -4.539062 9.875 -4 C 8.800781 -3.007812 7.851562 -2.515625 7.03125 -2.515625 Z M 0.546875 -0.5625 C 0.710938 -0.476562 0.945312 -0.4375 1.25 -0.4375 C 1.925781 -0.4375 2.796875 -0.816406 3.859375 -1.578125 C 4.671875 -2.160156 5.394531 -2.832031 6.03125 -3.59375 L 6.03125 -3.65625 C 6.03125 -4.539062 6.363281 -5.207031 7.03125 -5.65625 C 7.207031 -5.78125 7.375 -5.867188 7.53125 -5.921875 C 8.03125 -6.984375 8.265625 -7.851562 8.234375 -8.53125 C 8.171875 -9.601562 7.773438 -10.140625 7.046875 -10.140625 C 5.816406 -10.140625 4.09375 -8.753906 1.875 -5.984375 C 0.445312 -4.191406 -0.222656 -2.796875 -0.140625 -1.796875 C -0.140625 -1.222656 0.0859375 -0.8125 0.546875 -0.5625 Z M 0.546875 -0.5625 "/></g></g></g><g fill="#000000" fill-opacity="1"><g transform="translate(281.721097, 194.624987)"><g><path d="M 4.8125 -2.875 C 4.9375 -2.851562 5.09375 -2.84375 5.28125 -2.84375 C 5.476562 -2.84375 5.710938 -2.914062 5.984375 -3.0625 C 6.253906 -3.207031 6.53125 -3.394531 6.8125 -3.625 C 7.101562 -3.851562 7.390625 -4.101562 7.671875 -4.375 C 7.953125 -4.65625 8.207031 -4.921875 8.4375 -5.171875 C 8.675781 -5.429688 8.882812 -5.664062 9.0625 -5.875 L 9.421875 -6.34375 L 9.765625 -6.078125 C 9.640625 -5.953125 9.476562 -5.78125 9.28125 -5.5625 L 8.625 -4.8125 C 7.175781 -3.25 6.03125 -2.46875 5.1875 -2.46875 L 4.921875 -2.46875 C 4.835938 -2.46875 4.753906 -2.476562 4.671875 -2.5 C 3.796875 -0.59375 1.9375 0.359375 -0.90625 0.359375 C -2.144531 0.359375 -3.046875 0.0625 -3.609375 -0.53125 C -3.847656 -0.789062 -3.96875 -1.125 -3.96875 -1.53125 C -3.96875 -1.9375 -3.867188 -2.28125 -3.671875 -2.5625 C -3.484375 -2.851562 -3.257812 -3.09375 -3 -3.28125 C -2.46875 -3.664062 -1.988281 -3.859375 -1.5625 -3.859375 C -1.144531 -3.859375 -0.9375 -3.660156 -0.9375 -3.265625 C -0.96875 -2.992188 -1.195312 -2.789062 -1.625 -2.65625 C -1.757812 -2.613281 -1.890625 -2.59375 -2.015625 -2.59375 C -2.148438 -2.59375 -2.273438 -2.632812 -2.390625 -2.71875 C -2.515625 -2.8125 -2.613281 -2.878906 -2.6875 -2.921875 C -2.75 -2.859375 -2.828125 -2.785156 -2.921875 -2.703125 C -3.023438 -2.617188 -3.125 -2.519531 -3.21875 -2.40625 C -3.445312 -2.125 -3.5625 -1.832031 -3.5625 -1.53125 C -3.5625 -1.238281 -3.460938 -1.003906 -3.265625 -0.828125 C -3.066406 -0.648438 -2.832031 -0.515625 -2.5625 -0.421875 C -2.15625 -0.273438 -1.726562 -0.203125 -1.28125 -0.203125 C -0.84375 -0.203125 -0.390625 -0.296875 0.078125 -0.484375 C 0.554688 -0.671875 1.023438 -0.984375 1.484375 -1.421875 C 2.742188 -2.617188 3.425781 -4.394531 3.53125 -6.75 C 3.59375 -8.332031 3.785156 -9.570312 4.109375 -10.46875 C 4.117188 -10.5 4.125 -10.546875 4.125 -10.609375 L 0.4375 -6.078125 C 0.226562 -5.828125 0.078125 -5.664062 -0.015625 -5.59375 C -0.117188 -5.519531 -0.171875 -5.484375 -0.171875 -5.484375 C -0.296875 -5.472656 -0.378906 -5.503906 -0.421875 -5.578125 C -0.441406 -5.628906 -0.394531 -5.726562 -0.28125 -5.875 C 2.40625 -9.082031 3.914062 -10.90625 4.25 -11.34375 C 4.414062 -12.15625 4.6875 -12.5625 5.0625 -12.5625 C 5.238281 -12.5625 5.382812 -12.515625 5.5 -12.421875 C 5.625 -12.328125 5.6875 -12.207031 5.6875 -12.0625 C 5.675781 -11.863281 5.515625 -11.582031 5.203125 -11.21875 C 4.898438 -10.863281 4.710938 -10.632812 4.640625 -10.53125 C 4.578125 -10.4375 4.535156 -10.351562 4.515625 -10.28125 C 4.492188 -10.21875 4.484375 -10.15625 4.484375 -10.09375 L 4.484375 -9.90625 C 4.472656 -9.625 4.5 -9.289062 4.5625 -8.90625 L 4.953125 -6.3125 C 5.179688 -4.894531 5.132812 -3.75 4.8125 -2.875 Z M 4.8125 -2.875 "/></g></g></g></svg>